<?xml version="1.0" encoding="utf-8"?>
<!-- Generator: Adobe Illustrator 19.2.1, SVG Export Plug-In . SVG Version: 6.00 Build 0)  -->
<svg version="1.1" id="Layer_2" xmlns="http://www.w3.org/2000/svg" xmlns:xlink="http://www.w3.org/1999/xlink" x="0px" y="0px"
	 viewBox="0 0 1190.6 841.9" style="enable-background:new 0 0 1190.6 841.9;" xml:space="preserve">
<style type="text/css">
	.st0{fill:#231F20;}
	.st1{fill:none;stroke:#231F20;stroke-width:6;stroke-miterlimit:10;}
	.st2{fill:none;stroke:#231F20;stroke-width:2;stroke-miterlimit:10;}
	.st3{fill:none;stroke:#231F20;stroke-width:4;stroke-miterlimit:10;}
</style>
<path class="st0" d="M554.5,448.8"/>
<g>
	<path class="st0" d="M538.3,279.3c0,0-0.9-0.4-2.7-1.1c-1.7-0.7-4.3-1.7-7.6-2.7c-3.3-0.9-7.4-1.7-12.1-1.5c-2.3,0.1-4.8,0.5-7.4,1
		c-2.6,0.5-5.4,1.3-8.4,2c-3,0.7-6.1,1.3-9.5,1.8c-1.7,0.2-3.4,0.4-5.1,0.5c-0.5,0-0.8,0.1-1.4,0.1l-1.3,0c-0.9,0-1.7,0.1-2.6,0
		c-3.7,0-7.3-0.3-11.1-0.8c-3.7-0.5-7.5-1.2-11.3-2.2c-7.6-1.9-15.1-4.8-22.5-8.4c-1.8-0.9-3.6-1.9-5.4-2.9c-1.8-1-3.6-2.1-5.3-3.2
		c-3.5-2.2-6.9-4.5-10.2-6.9c-6.6-4.8-12.9-9.9-19-14.9c-6.1-5-12.1-9.9-18-14.4c-5.9-4.5-11.8-8.6-17.6-12
		c-5.8-3.4-11.6-6.3-17.1-8.3c-5.5-2-10.8-3.5-15.5-4.4c-4.7-0.9-9-1.3-12.4-1.5c-3.5-0.2-6.3-0.1-8.1-0.1c-1.9,0.1-2.9,0.1-2.9,0.1
		s1-0.2,2.8-0.5c1.9-0.3,4.6-0.8,8.2-1c3.5-0.2,7.9-0.4,12.9,0.1c5,0.5,10.6,1.3,16.5,3.1c5.9,1.8,12.2,4.2,18.5,7.4
		c6.3,3.2,12.6,7.1,18.9,11.5c6.3,4.4,12.5,9.2,18.7,14c6.2,4.9,12.5,9.8,18.9,14.4c3.2,2.3,6.5,4.5,9.8,6.6c1.6,1,3.3,2.1,5,3
		c1.7,1,3.4,1.9,5.1,2.7c6.8,3.5,13.9,6.3,20.8,8.3c7,2,14,3.1,20.5,3.5c0.8,0.1,1.7,0.1,2.5,0.1l1.3,0l1.2,0c1.6,0,3.2-0.1,4.8-0.1
		c3.1-0.2,6.1-0.6,9.1-1c5.9-0.8,11.6-1.8,16.8-1.4c2.6,0.2,4.9,0.6,7.1,1.2c2.1,0.6,4,1.3,5.6,2c3.3,1.5,5.7,2.9,7.3,4
		c0.8,0.5,1.4,0.9,1.8,1.2C538.1,279.1,538.3,279.3,538.3,279.3z"/>
</g>
<g>
	<path class="st0" d="M605.5,176.9c0,0,0.8,0.1,2.2,0.2c0.7,0.1,1.6,0.2,2.6,0.3c1,0.1,2.2,0.2,3.6,0.3c0.7,0.1,1.4,0.1,2.1,0.2
		c0.7,0,1.5,0.1,2.3,0.1c1.6,0,3.3,0.2,5.2,0.2c1.9,0,3.8,0.1,5.9,0.1c2.1,0,4.3,0,6.5-0.1c1.1,0,2.3-0.1,3.5-0.1
		c1.2-0.1,2.4-0.1,3.6-0.2c2.4-0.1,5-0.3,7.5-0.5c2.6-0.2,5.2-0.5,7.9-0.8c2.7-0.4,5.4-0.7,8.2-1.2c2.8-0.4,5.5-1.1,8.3-1.6
		c1.4-0.3,2.8-0.7,4.2-1.1c1.4-0.3,2.8-0.8,4.1-1.2l2.1-0.7c0.7-0.2,1.3-0.5,2-0.8l2-0.8c0.3-0.1,0.7-0.2,1-0.4l1-0.5
		c1.3-0.6,2.6-1.2,3.8-1.9c1.3-0.7,2.7-1.5,4-2.2c5.2-2.9,10.1-6,14.5-9.7c1.1-1,2.1-1.9,3.2-2.8c1-1,2-2,3-3
		c1.8-2.1,3.7-4.2,5.3-6.5c1.7-2.1,3.1-4.5,4.6-6.7c1.4-2.3,2.7-4.6,3.9-6.8c1.2-2.3,2.3-4.5,3.4-6.7c1-2.2,2-4.4,3-6.4
		c0.9-2.1,1.7-4.1,2.5-6c0.4-1,0.8-1.9,1.2-2.8c0.4-0.9,0.7-1.8,1.1-2.7c1.3-3.5,2.6-6.5,3.5-9c0.9-2.5,1.7-4.5,2.2-5.8
		c0.5-1.3,0.8-2.1,0.8-2.1s-0.1,0.8-0.4,2.2c-0.3,1.4-0.6,3.5-1.2,6.1c-0.5,2.7-1.2,5.8-2.2,9.5c-0.8,3.7-2.1,7.7-3.4,12.2
		c-0.8,2.2-1.5,4.5-2.4,6.9c-0.8,2.4-1.9,4.8-2.9,7.3c-0.5,1.3-1.1,2.5-1.7,3.7c-0.6,1.2-1.2,2.5-1.9,3.8c-0.7,1.2-1.4,2.5-2.1,3.8
		c-0.7,1.3-1.5,2.5-2.4,3.8c-3.3,5-7.3,9.9-12.1,14.1c-4.8,4.3-10.2,7.7-15.7,10.8c-1.4,0.8-2.7,1.5-4.1,2.2
		c-1.4,0.8-2.9,1.4-4.4,2.1c-1.5,0.8-3,1.2-4.5,1.8c-0.8,0.3-1.5,0.6-2.3,0.8l-2.3,0.7c-6,1.8-12.1,2.9-17.9,3.5
		c-2.9,0.4-5.8,0.6-8.6,0.8c-1.4,0.1-2.8,0.1-4.2,0.2c-1.4,0-2.7,0.1-4.1,0.1c-2.7,0-5.3,0-7.8-0.1c-1.3-0.1-2.5-0.1-3.7-0.2
		c-1.2-0.1-2.4-0.2-3.6-0.3c-4.6-0.3-8.9-0.9-12.6-1.5c-1.9-0.3-3.6-0.6-5.2-0.9c-0.8-0.2-1.6-0.3-2.3-0.5c-0.7-0.2-1.4-0.3-2.1-0.5
		c-1.3-0.3-2.5-0.6-3.5-0.9c-1-0.3-1.9-0.6-2.5-0.8C606.3,177.2,605.5,176.9,605.5,176.9z"/>
</g>
<g>
	<polyline class="st1" points="610.3,89.9 379.6,89.9 379.6,147.3 	"/>
	<polyline class="st1" points="795.5,522.1 795.5,89.9 750.4,89.9 	"/>
	<line class="st1" x1="379.6" y1="224.3" x2="379.6" y2="520.4"/>
</g>
<path class="st2" d="M550.6,507.6"/>
<g>
	<g>
		<path class="st1" d="M596.7,481.3c6.5-83,8.9-103.4,5-163.8c-3-46.3-2-81.1,0.7-121.4c1.1-16.6,0.7-17.5,13.3-16.5
			c49.2,4.2,91.8-6.8,114-41.9c21-33.2,22.3-79.3,57.4-102.7c-31-5.5-78.9,3.5-109,12.9c-25,7.8-51.9,22.1-67.9,42.7
			c-15.8,20.4-21,47.3-22.6,73.1c-2.5,39.9-10.4,73.1-3.5,124c1.2,9.2-13.5-2.3-15.6-4c-7.2-5.5-20.7-13.1-18.7-23.7
			c8.2-43-20-81.4-56.3-101.2c-62.5-33.9-147.5-18.3-189.4,40.5c39.9-5.8,72.9,14.5,102,39.4c31.2,26.7,66.1,40.4,107.6,33.4
			c14-2.4,48.8,17.6,57,27.8c9.2,11.4,12.1,27,13.5,41.2c2.5,25.5-9.3,125.9-12.1,151c-1,8.7-5.1,18.4-7.1,28"/>
		<path class="st1" d="M602.6,193.7C606.9,86,703.3,46.2,787,35.2"/>
	</g>
	<path class="st1" d="M303.9,199.6C450.5,82.1,550,265.7,550,265.7"/>
</g>
<g>
	<path d="M385.3,637h22.3c2.8,0,5.2,0.3,7.1,0.9c2,0.6,3.6,1.6,4.8,2.9c1.3,1.3,2.2,2.9,2.8,4.9c0.6,2,0.9,4.3,0.9,6.9
		c0,2.3-0.2,4.1-0.7,5.5c-0.5,1.4-1,2.5-1.7,3.4c-0.7,0.8-1.5,1.4-2.3,1.8c-0.9,0.4-1.6,0.6-2.4,0.8v0.1c0.5,0.1,1,0.2,1.7,0.3
		c0.7,0.2,1.4,0.4,2.1,0.8s1.4,0.8,2.1,1.4c0.7,0.6,1.3,1.4,1.9,2.3c0.6,0.9,1,2.1,1.4,3.4c0.3,1.3,0.5,2.8,0.5,4.6
		c0,3.5-0.3,6.4-1,8.6c-0.7,2.2-1.7,3.9-3.1,5.2c-1.4,1.2-3.2,2.1-5.3,2.5c-2.1,0.5-4.6,0.7-7.5,0.7h-23.4V637z M405.7,661
		c1.4,0,2.7-0.1,3.7-0.3c1-0.2,1.8-0.6,2.5-1.1c0.7-0.6,1.1-1.4,1.4-2.4c0.3-1,0.4-2.4,0.4-4.1c0-1.4-0.2-2.6-0.5-3.5
		c-0.3-0.9-0.9-1.7-1.5-2.3c-0.7-0.6-1.5-1-2.5-1.2c-1-0.2-2.1-0.4-3.3-0.4h-11.1V661H405.7z M407.6,685.2c1.2,0,2.3-0.1,3.3-0.3
		c1-0.2,1.8-0.6,2.6-1.2c0.7-0.6,1.2-1.4,1.6-2.5c0.4-1,0.6-2.4,0.6-4.2s-0.2-3.1-0.5-4.2c-0.3-1-0.9-1.9-1.6-2.4
		c-0.7-0.6-1.6-0.9-2.7-1.1c-1.1-0.2-2.4-0.3-3.8-0.3h-12.2v16H407.6z"/>
	<path d="M440.5,637h21.2c1.5,0,3,0.1,4.4,0.3c1.4,0.2,2.8,0.6,4.1,1.1c1.3,0.5,2.5,1.2,3.5,2.1c1.1,0.9,2,2,2.8,3.3
		c0.8,1.4,1.4,3,1.8,4.9c0.4,1.9,0.6,4.1,0.6,6.7c0,1.7-0.1,3.2-0.4,4.6c-0.3,1.3-0.7,2.5-1.1,3.6c-0.5,1-1,1.9-1.6,2.7
		c-0.6,0.8-1.2,1.4-1.8,2c-1.5,1.3-3.1,2.2-4.9,2.7v0.1l12,23h-10.9L459.5,673H450v20.9h-9.6V637z M461.6,664c5,0,7.5-3.1,7.5-9.3
		c0-1.6-0.2-3-0.5-4.1c-0.4-1.1-0.9-2-1.6-2.7c-0.7-0.7-1.5-1.2-2.5-1.5c-1-0.3-2-0.5-3.2-0.5H450V664H461.6z"/>
	<path d="M496.6,637h34.2v8.9h-24.6v14.9h20.6v8.7h-20.6V685h25.3v8.9h-34.9V637z"/>
	<path d="M559,637h12.7l18.6,56.9h-10.6l-4.8-15.4h-19.4l-4.6,15.4h-10.4L559,637z M572.3,669.9l-7-24.1h-0.2l-7,24.1H572.3z"/>
	<path d="M603,637h9.6v23.2h8.8l13.3-23.2h11l-15.9,27.5l16.8,29.4h-11.2l-14-24.7h-8.8v24.7H603V637z"/>
	<path d="M660.2,637h9.6v56.9h-9.6V637z"/>
	<path d="M689.2,637H705l20.7,48h0.2c0-1-0.1-1.9-0.1-2.9c0-0.9,0-1.8,0-2.7s0-1.9,0-2.8V637h9.5v56.9h-15.5l-17.6-40
		c-0.5-1.1-0.9-2.2-1.4-3.1c-0.4-1-0.8-1.8-1.1-2.5c-0.4-0.9-0.7-1.6-1-2.4h-0.2v48h-9.5V637z"/>
	<path d="M746.1,664.9c0-5.4,0.6-10,1.8-13.7c1.2-3.7,2.9-6.7,5.1-9c2.2-2.3,4.8-3.9,7.9-4.9c3.1-1,6.5-1.5,10.4-1.5
		c2.6,0,4.9,0.1,6.9,0.4c2,0.3,3.8,0.6,5.2,0.9c1.7,0.4,3.2,0.8,4.5,1.2v7.2c-1.4-0.2-3-0.3-4.6-0.4c-1.4-0.1-3-0.2-4.8-0.3
		c-1.8-0.1-3.7-0.1-5.6-0.1c-3.3,0-6.1,0.4-8.2,1.1c-2.2,0.7-3.9,1.9-5.2,3.4c-1.3,1.6-2.2,3.7-2.7,6.2c-0.5,2.6-0.8,5.7-0.8,9.4
		c0,3.8,0.3,7,0.8,9.7c0.5,2.7,1.4,4.9,2.7,6.6c1.2,1.7,2.9,3,4.9,3.8c2,0.8,4.6,1.2,7.6,1.2c1.3,0,2.5,0,3.5-0.1
		c1.1-0.1,2-0.2,2.7-0.3c0.9-0.1,1.6-0.3,2.3-0.5v-14.6h-10.4V662H790v29.1c-1.6,0.7-3.3,1.4-5.1,2c-1.6,0.5-3.5,1-5.6,1.4
		c-2.2,0.4-4.5,0.6-7,0.6c-4.1,0-7.8-0.5-11-1.4c-3.2-0.9-6-2.5-8.2-4.9c-2.2-2.3-3.9-5.4-5.1-9.3
		C746.7,675.7,746.1,670.8,746.1,664.9z"/>
	<path d="M386.4,737.1c0-5.4,0.6-10,1.8-13.7c1.2-3.7,2.9-6.7,5.1-9c2.2-2.3,4.8-3.9,7.9-4.9c3.1-1,6.5-1.5,10.4-1.5
		c2.6,0,4.9,0.1,6.9,0.4c2,0.3,3.8,0.6,5.2,0.9c1.7,0.4,3.2,0.8,4.5,1.2v7.2c-1.4-0.2-3-0.3-4.6-0.4c-1.4-0.1-3-0.2-4.8-0.3
		c-1.8-0.1-3.7-0.1-5.6-0.1c-3.3,0-6.1,0.4-8.2,1.1c-2.2,0.7-3.9,1.9-5.2,3.4c-1.3,1.6-2.2,3.7-2.7,6.2c-0.5,2.6-0.8,5.7-0.8,9.4
		c0,3.8,0.3,7,0.8,9.7c0.5,2.7,1.4,4.9,2.7,6.6c1.2,1.7,2.9,3,4.9,3.8c2,0.8,4.6,1.2,7.6,1.2c1.3,0,2.5,0,3.5-0.1
		c1.1-0.1,2-0.2,2.7-0.3c0.9-0.1,1.6-0.3,2.3-0.5v-14.6h-10.4v-8.7h19.8v29.1c-1.6,0.7-3.3,1.4-5.1,2c-1.6,0.5-3.5,1-5.6,1.4
		c-2.2,0.4-4.5,0.6-7,0.6c-4.1,0-7.8-0.5-11-1.4s-6-2.5-8.2-4.9c-2.2-2.3-3.9-5.4-5.1-9.3C387,747.8,386.4,743,386.4,737.1z"/>
	<path d="M459.2,709.2h21.2c1.5,0,3,0.1,4.4,0.3c1.4,0.2,2.8,0.6,4.1,1.1c1.3,0.5,2.5,1.2,3.5,2.1c1.1,0.9,2,2,2.8,3.3
		c0.8,1.4,1.4,3,1.8,4.9c0.4,1.9,0.6,4.1,0.6,6.7c0,1.7-0.1,3.2-0.4,4.6c-0.3,1.3-0.7,2.5-1.1,3.6c-0.5,1-1,1.9-1.6,2.7
		c-0.6,0.8-1.2,1.4-1.8,2c-1.5,1.3-3.1,2.2-4.9,2.7v0.1l12,23h-10.9l-10.6-20.9h-9.4V766h-9.6V709.2z M480.3,736.1
		c5,0,7.5-3.1,7.5-9.3c0-1.6-0.2-3-0.5-4.1c-0.4-1.1-0.9-2-1.6-2.7c-0.7-0.7-1.5-1.2-2.5-1.5c-1-0.3-2-0.5-3.2-0.5h-11.3v18.1H480.3
		z"/>
	<path d="M547.4,767.3c-2.4,0-4.7-0.2-6.8-0.5c-2.1-0.3-4-0.9-5.7-1.8c-1.7-0.9-3.3-2-4.6-3.4c-1.3-1.4-2.5-3.2-3.4-5.4
		c-0.9-2.2-1.6-4.8-2.1-7.8c-0.5-3-0.7-6.5-0.7-10.5c0-6,0.5-10.9,1.6-14.7c1.1-3.9,2.6-6.9,4.6-9.1c2-2.2,4.5-3.8,7.4-4.6
		c2.9-0.9,6.2-1.3,9.8-1.3c2.4,0,4.7,0.2,6.8,0.6c2.1,0.4,4,1,5.7,1.9c1.7,0.9,3.3,2.1,4.6,3.5c1.3,1.5,2.5,3.3,3.4,5.5
		c0.9,2.2,1.6,4.8,2.1,7.8c0.5,3,0.7,6.5,0.7,10.5s-0.2,7.4-0.7,10.4c-0.5,3-1.2,5.6-2.1,7.8c-0.9,2.2-2,4-3.4,5.5
		c-1.3,1.4-2.9,2.6-4.6,3.4c-1.7,0.9-3.6,1.5-5.7,1.8C552.1,767.1,549.8,767.3,547.4,767.3z M547.4,758.5c2.6,0,4.8-0.3,6.5-0.9
		c1.7-0.6,3.1-1.7,4.1-3.2c1-1.6,1.7-3.7,2.1-6.3c0.4-2.7,0.6-6.1,0.6-10.2c0-4.1-0.2-7.6-0.6-10.2c-0.4-2.7-1.1-4.8-2.1-6.4
		c-1-1.6-2.4-2.7-4.1-3.3c-1.7-0.6-3.9-0.9-6.5-0.9c-2.6,0-4.8,0.3-6.5,0.9c-1.7,0.6-3.1,1.7-4.1,3.3c-1,1.6-1.7,3.7-2.1,6.4
		c-0.4,2.7-0.6,6.1-0.6,10.2c0,4.1,0.2,7.5,0.6,10.2c0.4,2.7,1.1,4.8,2.1,6.3c1,1.6,2.4,2.6,4.1,3.2
		C542.7,758.1,544.8,758.5,547.4,758.5z"/>
	<path d="M598.7,709.2h9.5v38c0,2.3,0.2,4.1,0.6,5.6c0.4,1.5,1.1,2.6,2,3.4c0.9,0.8,2.1,1.4,3.6,1.8c1.5,0.3,3.3,0.5,5.4,0.5
		c1.9,0,3.6-0.2,5-0.5c1.4-0.3,2.6-0.9,3.6-1.8c1-0.8,1.7-2,2.1-3.4c0.5-1.5,0.7-3.3,0.7-5.6v-38h9.5v38.6c0,3.3-0.4,6.2-1.1,8.6
		c-0.8,2.4-2,4.5-3.6,6.1c-1.7,1.6-3.8,2.8-6.5,3.6c-2.6,0.8-5.9,1.2-9.6,1.2c-3.8,0-7-0.4-9.6-1.2c-2.7-0.8-4.8-2-6.5-3.6
		c-1.7-1.6-2.9-3.6-3.7-6c-0.8-2.4-1.2-5.3-1.2-8.6V709.2z"/>
	<path d="M671.2,709.2H687l20.7,48h0.2c0-1-0.1-1.9-0.1-2.9c0-0.9,0-1.8,0-2.7s0-1.9,0-2.8v-39.5h9.5V766h-15.5l-17.6-40
		c-0.5-1.1-0.9-2.2-1.4-3.1c-0.4-1-0.8-1.8-1.1-2.5c-0.4-0.9-0.7-1.6-1-2.4h-0.2v48h-9.5V709.2z"/>
	<path d="M748.1,709.2h20.4c2.1,0,4.1,0.1,6,0.4c1.9,0.3,3.7,0.8,5.4,1.6s3.1,1.8,4.5,3.1c1.4,1.3,2.5,3,3.5,5.1
		c1,2.1,1.7,4.6,2.2,7.5c0.5,2.9,0.8,6.3,0.8,10.3c0,4.1-0.2,7.6-0.7,10.6c-0.5,3-1.2,5.6-2.1,7.7c-0.9,2.1-2,3.9-3.3,5.3
		c-1.3,1.4-2.8,2.4-4.4,3.2c-1.7,0.8-3.5,1.3-5.5,1.6c-2,0.3-4.1,0.4-6.4,0.4h-20.4V709.2z M765.9,757.1c1.4,0,2.7,0,3.9-0.1
		c1.3-0.1,2.5-0.3,3.6-0.7c1.1-0.4,2.1-1,3-1.8c0.9-0.8,1.7-2,2.4-3.4c0.6-1.5,1.2-3.4,1.5-5.6c0.4-2.3,0.5-5.1,0.5-8.4
		c0-3.1-0.2-5.7-0.5-7.8c-0.3-2.1-0.8-3.9-1.5-5.3c-0.6-1.4-1.4-2.5-2.3-3.3c-0.9-0.8-1.9-1.4-3-1.8c-1.1-0.4-2.3-0.6-3.6-0.7
		c-1.3-0.1-2.6-0.1-4-0.1h-8.2v39.1H765.9z"/>
</g>
<g>
	<polygon class="st0" points="538.3,447.7 540.6,484.6 527.2,496.8 475.2,521 431.7,522.5 308.3,563.9 426.6,514.6 462.8,507.4 
		504.2,492.3 	"/>
	<polygon class="st0" points="649.4,448.7 650.8,478 662.7,490.2 688.3,528 708.8,542.7 718,556.5 770.7,555.5 809.7,567.6 
		886.7,599 822.8,552.4 761.2,517.2 720.3,518.3 681,496.1 	"/>
	<polyline class="st3" points="652,571.9 612.8,540.5 611.7,525.4 607.2,500.4 611.9,476.2 592.1,482.9 580,500.4 552.2,543.6 
		554.4,552 522.6,583.7 499.8,601.4 464.6,613.9 516.1,580.4 535.2,553.5 540.5,515.2 554.4,480.7 547.4,474.9 540.8,481.3 
		526.7,495 474.8,518.5 431.5,520.6 308.3,563.9 	"/>
	<polygon class="st3" points="532.7,454.3 516.9,466.1 507.3,470.5 442.5,502.9 412.6,500.4 308.3,563.9 426.6,514.6 463.5,507.2 
		509.3,491.3 	"/>
	<polygon class="st3" points="652,451 682,462 691.2,472.7 745.3,507.3 774.7,504.9 875.2,593.1 819.9,552.9 760.9,518.5 
		719.1,520.1 679.6,496.2 	"/>
	<polygon class="st0" points="555.6,479.9 561.3,484.6 557.9,503.8 567.1,520.4 552.2,543.6 554.4,552 522.6,583.7 499.8,601.4 
		461.7,615.7 516.1,580.4 535.2,553.5 540.5,515.2 	"/>
	<polyline class="st0" points="650.6,507.6 635.1,475.6 628.2,482 627.3,490.9 614.7,511.6 611.9,476.2 602.8,500.4 607.1,557.3 
		641.2,588.5 761.2,618.8 660.7,567.9 640.4,558.6 645,535.7 	"/>
	<polyline class="st3" points="761.2,621.6 640.2,561.4 649.8,510.4 636.8,476 643.3,470.1 649.4,476.5 662.7,490.2 688.3,528 
		715.2,547.3 	"/>
</g>
</svg>
